HIERARCHY
ROOT Hips
{
  OFFSET -30.0536 87.9497 -126.568
  CHANNELS 6 Xposition Yposition Zposition Zrotation Xrotation Yrotation
  JOINT LeftUpLeg
  {
    OFFSET 9.63379 -0.250344 0
    CHANNELS 6 Xposition Yposition Zposition Zrotation Xrotation Yrotation
    JOINT LeftLeg
    {
      OFFSET 0 -40.4779 -1.71313
      CHANNELS 6 Xposition Yposition Zposition Zrotation Xrotation Yrotation
      JOINT LeftFoot
      {
        OFFSET 0.0126047 -40.4416 -0.864524
        CHANNELS 6 Xposition Yposition Zposition Zrotation Xrotation Yrotation
        JOINT LeftToeBase
        {
          OFFSET -0.183287 -12.1867 8.28226
          CHANNELS 6 Xposition Yposition Zposition Zrotation Xrotation Yrotation
          End Site
          {
            OFFSET 0 0 9.15615
          }
        }
      }
    }
  }
  JOINT RightUpLeg
  {
    OFFSET -9.63379 -0.250344 0
    CHANNELS 6 Xposition Yposition Zposition Zrotation Xrotation Yrotation
    JOINT RightLeg
    {
      OFFSET 0 -40.478 -1.71313
      CHANNELS 6 Xposition Yposition Zposition Zrotation Xrotation Yrotation
      JOINT RightFoot
      {
        OFFSET -0.0126047 -40.4414 -0.864524
        CHANNELS 6 Xposition Yposition Zposition Zrotation Xrotation Yrotation
        JOINT RightToeBase
        {
          OFFSET 0.183287 -12.1867 8.28226
          CHANNELS 6 Xposition Yposition Zposition Zrotation Xrotation Yrotation
          End Site
          {
            OFFSET 0.00319481 0 9.156
          }
        }
      }
    }
  }
  JOINT Spine
  {
    OFFSET 0 5.60909 -1.89659
    CHANNELS 6 Xposition Yposition Zposition Zrotation Xrotation Yrotation
    JOINT Spine1
    {
      OFFSET 0 6.56349 1.09934
      CHANNELS 6 Xposition Yposition Zposition Zrotation Xrotation Yrotation
      JOINT Spine2
      {
        OFFSET 0 7.57662 1.04304
        CHANNELS 6 Xposition Yposition Zposition Zrotation Xrotation Yrotation
        JOINT Spine3
        {
          OFFSET 0 8.29213 0.399731
          CHANNELS 6 Xposition Yposition Zposition Zrotation Xrotation Yrotation
          JOINT Spine4
          {
            OFFSET 0 8.9581 -0.526302
            CHANNELS 6 Xposition Yposition Zposition Zrotation Xrotation Yrotation
            JOINT Neck
            {
              OFFSET 0 18.4163 -4.35419
              CHANNELS 6 Xposition Yposition Zposition Zrotation Xrotation Yrotation
              JOINT Head
              {
                OFFSET 0 8.97127 1.78542
                CHANNELS 6 Xposition Yposition Zposition Zrotation Xrotation Yrotation
                End Site
                {
                  OFFSET 0 0 0
                }
              }
            }
            JOINT LeftShoulder
            {
              OFFSET 6.14423 15.3316 -3.79324
              CHANNELS 6 Xposition Yposition Zposition Zrotation Xrotation Yrotation
              JOINT LeftArm
              {
                OFFSET 9.01906 -1.11411 -1.79347
                CHANNELS 6 Xposition Yposition Zposition Zrotation Xrotation Yrotation
                JOINT LeftForeArm
                {
                  OFFSET 27.687 0 0
                  CHANNELS 6 Xposition Yposition Zposition Zrotation Xrotation Yrotation
                  JOINT LeftHand
                  {
                    OFFSET 27.8738 0 0
                    CHANNELS 6 Xposition Yposition Zposition Zrotation Xrotation Yrotation
                    End Site
                    {
                      OFFSET 0 0 0
                    }
                  }
                }
              }
            }
            JOINT RightShoulder
            {
              OFFSET -6.14423 15.3316 -3.79324
              CHANNELS 6 Xposition Yposition Zposition Zrotation Xrotation Yrotation
              JOINT RightArm
              {
                OFFSET -9.01884 -1.11411 -1.79347
                CHANNELS 6 Xposition Yposition Zposition Zrotation Xrotation Yrotation
                JOINT RightForeArm
                {
                  OFFSET -27.0381 0.00109999 0
                  CHANNELS 6 Xposition Yposition Zposition Zrotation Xrotation Yrotation
                  JOINT RightHand
                  {
                    OFFSET -28.5227 0 0
                    CHANNELS 6 Xposition Yposition Zposition Zrotation Xrotation Yrotation
                    End Site
                    {
                      OFFSET 0 0 0
                    }
                  }
                }
              }
            }
          }
        }
      }
    }
  }
}
MOTION
Frames:	8
Frame Time:	0.00833333
-17.0203 92.4616 -97.5226 -0.454025 7.59507 -2.80382 9.63379 -0.250344 -7.15256e-007 1.5099 -11.7022 8.7393 0 -40.4779 -1.71313 -6.56668 6.27361 0.131994 0.0126047 -40.4416 -0.864524 -0.241965 0.79618 0.00370341 -0.183287 -12.1867 8.28226 1.70565e-011 -4.43765e-011 -5.82837e-011 -9.63379 -0.250344 -7.15256e-007 2.74598 -34.8783 -7.56953 0 -40.478 -1.71313 -17.7017 63.9568 14.7245 -0.0126047 -40.4414 -0.864524 -0.255807 -0.386743 0.00471751 0.183287 -12.1867 8.28226 -8.64351e-012 2.42533e-011 2.08613e-011 -2.64698e-023 5.60909 -1.89659 3.38409 -0.941539 -0.170562 0 6.56349 1.09934 -0.680961 -1.79853 -0.815605 0 7.57662 1.04304 -0.680168 -1.79754 -0.818453 0 8.29213 0.399731 -0.679478 -1.7965 -0.821314 0 8.9581 -0.526302 -0.678889 -1.79541 -0.824183 0 18.4163 -4.35419 -8.73579 -1.15845 3.18596 1.05879e-022 8.97127 1.78542 4.65746 -0.202069 -0.416323 6.14423 15.3316 -3.79324 -30.3465 1.97045 -1.90606 9.01906 -1.11411 -1.79347 -52.0084 -2.08953 -18.5821 27.687 0 0 9.57068 13.9726 -3.79538e-011 27.8738 0 0 -0.587375 -2.91187 -12.6266 -6.14423 15.3316 -3.79324 36.1217 2.98536 3.55991 -9.01884 -1.11411 -1.79347 42.1798 13.8223 11.3275 -27.0381 0.00109999 5.96046e-008 2.73197 18.2462 1.3289e-007 -28.5227 0 0 -15.2362 -1.67379 3.49006 
-17.0214 92.5405 -96.6864 -0.912987 7.64036 -2.44398 9.63379 -0.250344 -7.15256e-007 1.85617 -11.0699 8.96321 0 -40.4779 -1.71313 -6.45477 6.01981 0.18469 0.0126047 -40.4416 -0.864524 -0.23402 0.776569 0.00387968 -0.183287 -12.1867 8.28226 1.70565e-011 -4.43765e-011 -5.82837e-011 -9.63379 -0.250344 -7.15256e-007 3.13281 -35.8685 -8.03844 0 -40.478 -1.71313 -17.7113 63.1317 14.688 -0.0126047 -40.4414 -0.864524 -0.199612 -0.628602 0.00355677 0.183287 -12.1867 8.28226 -8.64351e-012 2.42533e-011 2.08613e-011 -2.64698e-023 5.60909 -1.89659 3.48276 -0.904262 -0.176524 0 6.56349 1.09934 -0.582867 -1.75186 -0.906585 0 7.57662 1.04304 -0.582222 -1.75073 -0.909189 0 8.29213 0.399731 -0.581673 -1.74956 -0.911802 0 8.9581 -0.526302 -0.581222 -1.74836 -0.914419 0 18.4163 -4.35419 -8.82756 -1.37767 3.21907 1.05879e-022 8.97127 1.78542 4.63845 -0.275814 -0.388089 6.14423 15.3316 -3.79324 -30.26 2.00056 -2.00165 9.01906 -1.11411 -1.79347 -51.9628 -2.03551 -18.9753 27.687 0 0 9.56788 14.4701 -3.80374e-011 27.8738 0 0 -0.429224 -2.87023 -12.6113 -6.14423 15.3316 -3.79324 36.1231 2.96793 3.51847 -9.01884 -1.11411 -1.79347 42.1029 13.7709 11.0865 -27.0381 0.00109999 5.96046e-008 2.61429 17.567 1.32382e-007 -28.5227 0 0 -15.189 -1.6711 3.53905 
-17.0243 92.6147 -95.857 -1.37118 7.63378 -2.02713 9.63379 -0.250344 -7.15256e-007 2.14045 -10.4066 9.08209 0 -40.4779 -1.71313 -6.23415 5.75062 0.229351 0.0126047 -40.4416 -0.864524 -0.217946 0.760763 0.00403047 -0.183287 -12.1867 8.28226 1.70565e-011 -4.43765e-011 -5.82837e-011 -9.63379 -0.250344 -7.15256e-007 3.43533 -36.7123 -8.51587 0 -40.478 -1.71313 -17.3221 62.1491 14.3218 -0.0126047 -40.4414 -0.864524 -0.137801 -0.903249 0.00248254 0.183287 -12.1867 8.28226 -8.64351e-012 2.42533e-011 2.08613e-011 -2.64698e-023 5.60909 -1.89659 3.58079 -0.860503 -0.187028 0 6.56349 1.09934 -0.483456 -1.69361 -1.00128 0 7.57662 1.04304 -0.483001 -1.69233 -1.00367 0 8.29213 0.399731 -0.48264 -1.69103 -1.00606 0 8.9581 -0.526302 -0.482371 -1.68969 -1.00845 0 18.4163 -4.35419 -8.91439 -1.62616 3.24015 1.05879e-022 8.97127 1.78542 4.61406 -0.300453 -0.368607 6.14423 15.3316 -3.79324 -30.2001 2.0437 -2.12922 9.01906 -1.11411 -1.79347 -51.8943 -1.98144 -19.3564 27.687 0 0 9.55976 14.9318 -3.81179e-011 27.8738 0 0 -0.276029 -2.82929 -12.5863 -6.14423 15.3316 -3.79324 36.1159 2.94222 3.45891 -9.01884 -1.11411 -1.79347 42.0236 13.7078 10.8127 -27.0381 0.00109999 5.96046e-008 2.46643 16.6425 1.31726e-007 -28.5227 0 0 -15.0216 -1.65392 3.64005 
-17.0279 92.6794 -95.0313 -1.80445 7.60265 -1.56898 9.63379 -0.250344 -7.15256e-007 2.35815 -9.73593 9.11919 0 -40.4779 -1.71313 -5.93759 5.47389 0.267059 0.0126047 -40.4416 -0.864524 -0.196179 0.750568 0.00415331 -0.183287 -12.1867 8.28226 1.70565e-011 -4.43765e-011 -5.82837e-011 -9.63379 -0.250344 -7.15256e-007 3.63583 -37.4397 -8.99399 0 -40.478 -1.71313 -16.6022 61.0039 13.6928 -0.0126047 -40.4414 -0.864524 -0.075111 -1.18996 0.00154786 0.183287 -12.1867 8.28226 -8.64351e-012 2.42533e-011 2.08613e-011 -2.64698e-023 5.60909 -1.89659 3.66494 -0.814829 -0.202807 0 6.56349 1.09934 -0.386056 -1.63156 -1.09925 0 7.57662 1.04304 -0.385828 -1.63014 -1.10145 0 8.29213 0.399731 -0.385689 -1.6287 -1.10365 0 8.9581 -0.526302 -0.385642 -1.62724 -1.10584 0 18.4163 -4.35419 -8.99161 -1.8838 3.25084 1.05879e-022 8.97127 1.78542 4.58733 -0.298256 -0.356305 6.14423 15.3316 -3.79324 -30.1506 2.09258 -2.27141 9.01906 -1.11411 -1.79347 -51.8207 -1.92818 -19.725 27.687 0 0 9.55054 15.361 -3.81953e-011 27.8738 0 0 -0.134249 -2.79155 -12.5662 -6.14423 15.3316 -3.79324 36.1061 2.91292 3.39133 -9.01884 -1.11411 -1.79347 41.9399 13.6421 10.5126 -27.0381 0.00109999 5.96046e-008 2.30195 15.5759 1.3102e-007 -28.5227 0 0 -14.8006 -1.63119 3.77345 
-17.0308 92.7297 -94.2063 -2.18938 7.5744 -1.08513 9.63379 -0.250344 -7.15256e-007 2.50382 -9.08174 9.09738 0 -40.4779 -1.71313 -5.59785 5.19744 0.298893 0.0126047 -40.4416 -0.864524 -0.171149 0.747792 0.0042457 -0.183287 -12.1867 8.28226 1.70565e-011 -4.43765e-011 -5.82837e-011 -9.63379 -0.250344 -7.15256e-007 3.7159 -38.0809 -9.46557 0 -40.478 -1.71313 -15.6192 59.6898 12.867 -0.0126047 -40.4414 -0.864524 -0.0162755 -1.46802 0.0008058 0.183287 -12.1867 8.28226 -8.64351e-012 2.42533e-011 2.08613e-011 -2.64698e-023 5.60909 -1.89659 3.72196 -0.771807 -0.224596 0 6.56349 1.09934 -0.294048 -1.57352 -1.20006 0 7.57662 1.04304 -0.294073 -1.57197 -1.20211 0 8.29213 0.399731 -0.294187 -1.57041 -1.20414 0 8.9581 -0.526302 -0.29439 -1.56883 -1.20617 0 18.4163 -4.35419 -9.05455 -2.13042 3.25279 1.05879e-022 8.97127 1.78542 4.56135 -0.291498 -0.349609 6.14423 15.3316 -3.79324 -30.0955 2.13995 -2.41083 9.01906 -1.11411 -1.79347 -51.7597 -1.87659 -20.0808 27.687 0 0 9.54438 15.7608 -3.82696e-011 27.8738 0 0 -0.0103053 -2.75949 -12.5656 -6.14423 15.3316 -3.79324 36.0999 2.88472 3.3258 -9.01884 -1.11411 -1.79347 41.8502 13.5829 10.1928 -27.0381 0.00109999 5.96046e-008 2.13441 14.4705 1.30343e-007 -28.5227 0 0 -14.5922 -1.61187 3.91966 
-17.0316 92.7608 -93.379 -2.50348 7.57651 -0.591051 9.63379 -0.250344 -7.15256e-007 2.57088 -8.46784 9.03911 0 -40.4779 -1.71313 -5.24772 4.92912 0.325932 0.0126047 -40.4416 -0.864524 -0.145292 0.75424 0.00430517 -0.183287 -12.1867 8.28226 1.70565e-011 -4.43765e-011 -5.82837e-011 -9.63379 -0.250344 -7.15256e-007 3.65621 -38.6662 -9.92416 0 -40.478 -1.71313 -14.4373 58.2007 11.9064 -0.0126047 -40.4414 -0.864524 0.0339731 -1.71671 0.000309488 0.183287 -12.1867 8.28226 -8.64351e-012 2.42533e-011 2.08613e-011 -2.64698e-023 5.60909 -1.89659 3.7386 -0.736003 -0.253127 0 6.56349 1.09934 -0.210869 -1.52729 -1.30328 0 7.57662 1.04304 -0.211167 -1.52562 -1.3052 0 8.29213 0.399731 -0.211555 -1.52394 -1.3071 0 8.9581 -0.526302 -0.212031 -1.52227 -1.30898 0 18.4163 -4.35419 -9.09851 -2.34589 3.24758 1.05879e-022 8.97127 1.78542 4.53922 -0.30245 -0.346946 6.14423 15.3316 -3.79324 -30.0187 2.17856 -2.53008 9.01906 -1.11411 -1.79347 -51.7292 -1.82753 -20.4233 27.687 0 0 9.54551 16.1346 -3.8341e-011 27.8738 0 0 0.0894081 -2.73562 -12.5993 -6.14423 15.3316 -3.79324 36.1032 2.86232 3.27242 -9.01884 -1.11411 -1.79347 41.753 13.5395 9.85953 -27.0381 0.00109999 5.96046e-008 1.97738 13.4293 1.29756e-007 -28.5227 0 0 -14.4629 -1.6049 4.05909 
-17.029 92.7746 -92.558 -2.74547 7.61379 -0.0753775 9.63379 -0.250344 -7.15256e-007 2.53281 -7.90656 8.90315 0 -40.4779 -1.71313 -4.85222 4.65869 0.34817 0.0126047 -40.4416 -0.864524 -0.117571 0.773679 0.00402127 -0.183287 -12.1867 8.28226 1.70565e-011 -4.43765e-011 -5.82837e-011 -9.63379 -0.250344 -7.15256e-007 3.44422 -39.2134 -10.3783 0 -40.478 -1.71313 -13.0481 56.5265 10.7932 -0.0126047 -40.4414 -0.864524 0.0791848 -1.94441 0.00017046 0.183287 -12.1867 8.28226 -8.64351e-012 2.42533e-011 2.08613e-011 -2.64698e-023 5.60909 -1.89659 3.71311 -0.707993 -0.288719 0 6.56349 1.09934 -0.136721 -1.49501 -1.41208 0 7.57662 1.04304 -0.13734 -1.49323 -1.41391 0 8.29213 0.399731 -0.138051 -1.49145 -1.41573 0 8.9581 -0.526302 -0.138854 -1.48969 -1.41752 0 18.4163 -4.35419 -9.1239 -2.51759 3.23519 1.05879e-022 8.97127 1.78542 4.51911 -0.336048 -0.348513 6.14423 15.3316 -3.79324 -29.9092 2.20804 -2.63019 9.01906 -1.11411 -1.79347 -51.7424 -1.77926 -20.745 27.687 0 0 9.55467 16.474 -3.84075e-011 27.8738 0 0 0.165701 -2.72073 -12.684 -6.14423 15.3316 -3.79324 36.121 2.84731 3.23409 -9.01884 -1.11411 -1.79347 41.6443 13.5167 9.49624 -27.0381 0.00109999 5.96046e-008 1.82876 12.41 1.29228e-007 -28.5227 0 0 -14.4189 -1.61136 4.19367 
-17.0238 92.7745 -91.7454 -2.93103 7.66774 0.472307 9.63379 -0.250344 -7.15256e-007 2.39768 -7.38134 8.67481 0 -40.4779 -1.71313 -4.38963 4.38094 0.364904 0.0126047 -40.4416 -0.864524 -0.0863635 0.804904 0.00322743 -0.183287 -12.1867 8.28226 1.70565e-011 -4.43765e-011 -5.82837e-011 -9.63379 -0.250344 -7.15256e-007 3.09647 -39.7028 -10.8297 0 -40.478 -1.71313 -11.4795 54.6617 9.54724 -0.0126047 -40.4414 -0.864524 0.122521 -2.16496 0.000353433 0.183287 -12.1867 8.28226 -8.64351e-012 2.42533e-011 2.08613e-011 -2.64698e-023 5.60909 -1.89659 3.65436 -0.684733 -0.330883 0 6.56349 1.09934 -0.0693705 -1.47149 -1.52674 0 7.57662 1.04304 -0.0703634 -1.46959 -1.52855 0 8.29213 0.399731 -0.0714534 -1.46773 -1.53032 0 8.9581 -0.526302 -0.0726387 -1.46589 -1.53207 0 18.4163 -4.35419 -9.13399 -2.65895 3.21453 1.05879e-022 8.97127 1.78542 4.49893 -0.377445 -0.355358 6.14423 15.3316 -3.79324 -29.7778 2.23324 -2.72276 9.01906 -1.11411 -1.79347 -51.7877 -1.73122 -21.0463 27.687 0 0 9.56908 16.7767 -3.84682e-011 27.8738 0 0 0.222859 -2.71314 -12.8102 -6.14423 15.3316 -3.79324 36.1492 2.83654 3.2041 -9.01884 -1.11411 -1.79347 41.5255 13.5082 9.09853 -27.0381 0.00109999 5.96046e-008 1.67949 11.3437 1.28723e-007 -28.5227 0 0 -14.4158 -1.62528 4.33647 
